<svg width="126" height="51" viewBox="0 0 126 51" fill="none" xmlns="http://www.w3.org/2000/svg">
<path d="M63.3972 15.689C65.5769 15.689 67.3868 16.2409 68.8209 17.3494L69.0859 17.5618C70.3846 18.6441 71.2971 20.0618 71.8231 21.8122L71.8445 21.8863L71.7704 21.9058L69.0031 22.6502L68.932 22.6697L68.9115 22.5976C68.5722 21.3781 67.9847 20.408 67.1497 19.6841L66.9792 19.5428C66.0644 18.8076 64.8724 18.4369 63.3972 18.4368C62.1595 18.4368 61.1202 18.6982 60.2762 19.2173L60.1105 19.3245C59.3454 19.8421 58.7432 20.5403 58.3049 21.4215L58.1276 21.8103C57.6883 22.8785 57.4669 24.1258 57.4669 25.554L57.4747 26.0811C57.5163 27.2912 57.7296 28.3632 58.1139 29.2977L58.2923 29.6865C58.7304 30.5675 59.332 31.2659 60.0969 31.7835L60.2645 31.8906C61.1163 32.4099 62.1596 32.6711 63.3972 32.6711C64.8724 32.6711 66.0644 32.3004 66.9792 31.5652L67.1488 31.4229C67.9843 30.6917 68.5722 29.7219 68.9115 28.5104L68.932 28.4383L69.0031 28.4578L71.7704 29.2022L71.8445 29.2217L71.8231 29.2958C71.2971 31.0462 70.3846 32.4639 69.0859 33.5462L68.8209 33.7586C67.3868 34.8671 65.5769 35.419 63.3972 35.419C61.5068 35.419 59.8911 35.0071 58.5544 34.1805C57.3026 33.3981 56.3243 32.3298 55.6214 30.9776L55.484 30.7028C54.7823 29.2204 54.4326 27.5035 54.4326 25.554C54.4326 23.6045 54.7823 21.8875 55.484 20.4052L55.6214 20.1304C56.3243 18.7787 57.3016 17.7144 58.5534 16.9401L58.8077 16.7891C60.0937 16.055 61.6247 15.689 63.3972 15.689ZM81.2599 20.3876C82.681 20.3876 83.9186 20.708 84.9676 21.3513L85.1615 21.4751C86.1156 22.1059 86.8609 22.9504 87.3968 24.0056L87.5011 24.2181C88.0035 25.2934 88.2532 26.5182 88.2533 27.8897C88.2533 29.2776 87.9994 30.5151 87.4894 31.5993L87.3841 31.8137C86.8125 32.9393 86.0023 33.8243 84.9549 34.467L84.9539 34.468C83.905 35.1026 82.6723 35.418 81.2599 35.418C79.9277 35.4179 78.7573 35.1367 77.752 34.5713L77.5532 34.4543C76.5058 33.8117 75.6956 32.9266 75.124 31.801C74.5613 30.6666 74.2801 29.3611 74.2801 27.8897C74.2802 26.4096 74.5698 25.1052 75.1503 23.9793L75.2614 23.7689C75.8329 22.7353 76.6107 21.9249 77.5932 21.3386L77.7919 21.2237C78.7954 20.6662 79.9521 20.3877 81.2599 20.3876ZM93.9655 27.7864C93.9655 28.3301 94.0087 28.8921 94.0951 29.4712L94.134 29.6826C94.2336 30.1697 94.3922 30.6273 94.6096 31.0546L94.7099 31.2319C94.9543 31.635 95.2733 31.9667 95.6668 32.2268L95.8442 32.3311C96.2722 32.5569 96.8079 32.6721 97.4539 32.6721C97.8731 32.6721 98.2726 32.6134 98.6515 32.4958L98.8122 32.4412C99.2352 32.2802 99.6033 32.026 99.9172 31.6782L100.036 31.5428C100.302 31.2147 100.515 30.7995 100.672 30.2965L100.739 30.0743C100.862 29.6206 100.933 29.0947 100.951 28.4967L100.956 28.1917V20.7803H103.86V35.0273H101.282V33.4672C100.997 33.8004 100.677 34.0973 100.317 34.354L99.9864 34.5732C99.0762 35.13 97.978 35.4063 96.6968 35.4063C95.7149 35.4063 94.885 35.248 94.211 34.9289C93.5412 34.6116 92.9916 34.1965 92.5662 33.6826L92.5652 33.6816C92.2031 33.2271 91.915 32.7376 91.7009 32.2151L91.6142 31.9891C91.4499 31.5356 91.3247 31.0887 91.239 30.6492L91.166 30.2117C91.0874 29.6354 91.0481 29.1269 91.0481 28.6877V20.7803H93.9655V27.7864ZM121.755 16.9391L121.761 20.7803H125.945V23.3645H121.764L121.773 29.209L121.776 30.0012C121.778 30.2459 121.781 30.4725 121.785 30.6804L121.812 30.9747C121.851 31.2552 121.931 31.498 122.049 31.7035L122.17 31.8867C122.471 32.2911 122.906 32.5267 123.482 32.5932C124.166 32.6624 124.946 32.6972 125.86 32.5679L125.945 32.5562V35.0146L125.885 35.0263C125.104 35.1794 124.335 35.2553 123.58 35.2543L123.258 35.2495C122.393 35.223 121.659 35.0126 120.981 34.7048C120.379 34.4309 119.833 33.8859 119.474 33.3094L119.333 33.0609C119.021 32.4641 118.917 31.7876 118.89 31.1822C118.873 30.5723 118.864 29.8827 118.864 29.1165V16.8641H121.755V16.9391ZM115.393 20.7803L115.466 20.7823V23.3596H115.391C114.859 23.3596 114.784 23.3593 114.198 23.383C113.693 23.4034 113.006 23.5636 112.537 23.801L112.351 23.9072C111.916 24.1887 111.571 24.528 111.316 24.9265L111.317 24.9274C111.069 25.3287 110.89 25.778 110.778 26.2751C110.667 26.7649 110.61 27.2865 110.61 27.838V35.0273H107.706V20.7803H110.283V23.0147C110.366 22.8894 110.45 22.7664 110.538 22.6541C110.805 22.3109 111.119 21.9203 111.496 21.669C111.859 21.4039 112.279 21.1962 112.719 21.0551L113.089 20.9469C113.496 20.8443 114.041 20.7657 114.939 20.7657H114.941L115.393 20.7803ZM81.2599 23.1092C80.4708 23.1093 79.8083 23.2671 79.2692 23.5788L79.045 23.7221C78.539 24.0718 78.1454 24.5426 77.866 25.136L77.753 25.3981C77.4701 26.1096 77.3282 26.9401 77.3281 27.8897C77.3281 29.3576 77.6651 30.5238 78.3308 31.3947L78.4584 31.5525C79.1154 32.3135 80.0459 32.6973 81.2599 32.6975C82.5903 32.6975 83.571 32.252 84.2153 31.3703L84.3352 31.1988C84.9141 30.3266 85.2063 29.2248 85.2063 27.8897C85.2062 26.4305 84.8693 25.273 84.2036 24.411C83.5505 23.5462 82.5729 23.1092 81.2599 23.1092Z" fill="#001A31"/>
<path d="M15.473 27.8907C15.473 28.6827 15.6059 29.3772 15.8705 29.975L15.9748 30.1952C16.227 30.6987 16.548 31.1263 16.9366 31.4775L17.1061 31.6237C17.5071 31.9544 17.9472 32.2098 18.4264 32.3896L18.6359 32.4617C19.1254 32.6191 19.621 32.6974 20.1229 32.6975C20.7053 32.6975 21.2711 32.5951 21.8194 32.3896L22.026 32.3048C22.5009 32.0968 22.9331 31.8162 23.3229 31.4639L23.4856 31.3089C23.8534 30.9365 24.1503 30.488 24.3753 29.9633L24.4688 29.7333C24.6717 29.1901 24.7738 28.5759 24.7738 27.8907V16.0807H27.6903V28.0339C27.6902 29.4229 27.4093 30.6502 26.8445 31.7123L26.7275 31.9228C26.0853 33.0311 25.1918 33.8934 24.0489 34.5089C22.9139 35.1159 21.6039 35.419 20.1229 35.419C18.6421 35.419 17.3287 35.1167 16.1853 34.5099L16.1843 34.5089C15.0501 33.8934 14.1615 33.0351 13.5193 31.9355C12.8765 30.826 12.5556 29.524 12.5556 28.0339V16.0944H12.6306L15.398 16.0807H15.473V27.8907ZM38.6906 20.4013C39.6728 20.4013 40.5032 20.5594 41.1773 20.8788L41.4229 21.0025C41.9815 21.3026 42.4439 21.6812 42.8085 22.1387L42.9625 22.3326C43.3104 22.7905 43.5812 23.286 43.7741 23.8186L43.9252 24.2697C44.0633 24.7187 44.1621 25.1609 44.2214 25.5959L44.273 26.0159C44.3173 26.4226 44.3393 26.7914 44.3393 27.1209V35.0273H41.4229V28.0212C41.4229 27.4774 41.3747 26.9196 41.2796 26.3491C41.2045 25.8458 41.0639 25.3748 40.8577 24.9382L40.7651 24.753C40.5189 24.269 40.1666 23.8782 39.7079 23.5808L39.7069 23.5798C39.2616 23.2859 38.6721 23.1355 37.9335 23.1355C37.455 23.1356 37.0031 23.2172 36.5771 23.3791H36.5751C36.1524 23.5314 35.7792 23.7805 35.4565 24.1284L35.4575 24.1294C35.1445 24.4763 34.8913 24.9353 34.7023 25.5102L34.7033 25.5111C34.5235 26.0848 34.4324 26.7866 34.4324 27.6169V35.0273H31.515V20.8034H34.106V22.3433C34.4755 21.9091 34.9062 21.5376 35.4019 21.2344L35.5744 21.134C36.4497 20.6448 37.4894 20.4013 38.6906 20.4013ZM51.0639 35.0273H48.1855V20.8423H51.0639V35.0273ZM51.0639 18.5427H48.1855V15.7637H51.0639V18.5427Z" fill="#001A31"/>
<path d="M44.3553 0.428478L44.3602 0.427496L44.6972 0.445179C48.0829 0.700149 50.7732 3.44497 50.9383 6.8504L50.9462 7.18245V9.75338H48.3242V7.18245C48.3239 5.03783 46.6902 3.27404 44.5979 3.06523L44.3946 3.04951H44.3897L44.1834 3.0446L7.70997 3.05049C5.56319 3.05076 3.79731 4.68164 3.58783 6.77082L3.57212 6.97418V6.97811L3.5672 7.18932V43.6716L3.57212 43.8847C3.68313 46.0709 5.49368 47.8101 7.70997 47.8104L44.1853 47.8045L44.3848 47.7996H44.3877C46.5087 47.6954 48.2111 45.9983 48.3192 43.8808V43.8759L48.3242 43.6706V41.0957H50.9462V43.6696L50.9442 43.8405C50.8531 47.4329 47.9526 50.3294 44.3553 50.4206L44.1814 50.4226L7.708 50.4265L7.5351 50.4255C4.15904 50.3398 1.3974 47.7842 0.995293 44.5007L0.963856 44.1814L0.948138 43.8543L0.946173 43.8297L0.94519 43.6725V7.18834C0.945409 3.51963 3.87408 0.533664 7.52429 0.435355L7.55769 0.434373L7.55966 0.432408L7.70898 0.431426L7.708 0.430443L44.1814 0.426514L44.3553 0.428478Z" fill="#2F55D9"/>
</svg>
