<svg xmlns="http://www.w3.org/2000/svg" width="171.802" height="164.641" viewBox="0 0 171.802 164.641">
  <g id="Group_202" data-name="Group 202" transform="translate(-37.545 -43.322)">
    <path id="Path_62" data-name="Path 62" d="M158.713,63.9c.035-.008.039.015.041.041.168,4,1.545,7.639.822,12.123-.43.021-.844.061-1.315.041.044-1.747.5-3.356.452-5.178C158.642,68.4,157.643,65.883,158.713,63.9ZM143.878,114a3.729,3.729,0,0,0-.452-1.192c.109-.347.487-.851.37-1.151C143.355,112.206,142.711,113.76,143.878,114Zm-7.89,2.835c.23-1.51.482-3,1.479-3.74.01-.051.064-.083-.04-.082A3.62,3.62,0,0,0,135.988,116.831Zm7.027.658a21.164,21.164,0,0,0-2.835-.123c-.618.042-1.409.058-1.479.74a23.15,23.15,0,0,0,4.151,0c2.764.049,5.578.028,7.684.74C149.169,117.322,145.824,117.7,143.015,117.489Zm7.726,1.027c-.064.1-.085.244-.165.329.294.052.754.225,1.028.041C151.872,118.32,151.066,118.394,150.741,118.516Zm-6.575,3.165c.056.659,1.271.491,1.89.493a8.5,8.5,0,0,1,1.644.2,3.805,3.805,0,0,0,1.562.206.827.827,0,0,0,.452-1.069c-.289-.842-2.791-.925-3.7-.862C145.352,120.7,144.1,120.936,144.166,121.681Zm37.5,0a4.719,4.719,0,0,0-1.01,0c.375.416,2.339,2.26,3.945,4.026.186.2.451.042.7.042C184.553,124.765,181.667,121.678,181.667,121.678Zm-95.239,24.33a14.5,14.5,0,0,0-2.548-4.6,30.67,30.67,0,0,0-2.219-2.548,5.926,5.926,0,0,0-2.96-1.809c-1.306-.142-1.917,1.482-1.314,2.589a4.371,4.371,0,0,0,1.151,1.027c.444.344.913.682,1.274.945.9.66,1.788,1.128,2.671,1.767,1.382,1,2.13,2.332,3.206,3.452a2.578,2.578,0,0,0,1.233.9A4.377,4.377,0,0,0,86.429,146.008Zm90.531,1.069a.628.628,0,0,1-.041.452c.354-.1.642-.262.987-.37,0-.206.14-.489.082-.616A5.555,5.555,0,0,1,176.959,147.077Zm-2.548.576c-.514.2-1.151.418-1.357.821a1.64,1.64,0,0,0,.945.083,3.583,3.583,0,0,0,2.1-.986C175.62,147.132,174.9,147.461,174.411,147.652Zm-31.766,11.259c1.291.218,2.553.542,3.9.658.393.034,1.027.24,1.274-.082-.183-.332-.649-.4-.987-.493a11.265,11.265,0,0,0-1.232-.288c-2.675-.428-5.427-.613-8.014-.986-.025,0-.048.006-.041.041A27.878,27.878,0,0,0,142.645,158.911Zm-.411,3.616c-2.859-.4-4.96-1.62-8.054-1.644-.045.008-.064.046-.082.082.041,0,.048.034.082.042,1.462.323,2.869.85,4.315,1.274.717.21,1.473.406,2.219.575a5.428,5.428,0,0,0,2.3.247C143.154,162.548,142.536,162.57,142.234,162.528Zm-34.971,7.931c.152-.054.354-.057.411-.206A.549.549,0,0,0,107.263,170.459Zm5.1,3.74c-.632,1.01-1.44,2.129-2.137,3.041-.083.109-.253.271-.205.41.648-.105,1.3-.207,1.931-.328.368-1.029.7-2.091,1.027-3.164A2.3,2.3,0,0,0,112.359,174.2Zm-.74.123h-.083a.483.483,0,0,1-.122.041,41.436,41.436,0,0,0-5.672,1.85c-5.534,2.065-11.1,4.056-16.314,6.369a77.856,77.856,0,0,1,9.781-2.506c3.4-.711,6.734-1.51,10.027-2.26C109.962,176.582,110.831,175.493,111.619,174.322Zm31.806.288c-.152.861-.158,1.869-.246,2.794-.11.055-.25.028-.411.165a6.937,6.937,0,0,0-1.069,1.561,18.212,18.212,0,0,0-.9,1.727,22.12,22.12,0,0,1-1.685,3.575c-.255.362-.587.675-.863,1.027s-.564.695-.821,1.068c-1.546,2.235-3,4.675-4.4,7.068-1.563,2.684-3.2,5.888-4.685,8.671-.172.324-.675,1.069-.205,1.233.322.113.593-.343.822-.74,1.471-2.544,2.833-5.093,4.151-7.562a93.252,93.252,0,0,1,4.89-8.383,8.079,8.079,0,0,0,.575,2.713c.432,2.025.513,4.277.9,6.369a62.41,62.41,0,0,1,1.068,6.205c.073.854.023,1.807.329,2.137a1.3,1.3,0,0,0,2.013-.411,7.221,7.221,0,0,0-.165-2.547,44.9,44.9,0,0,0-.862-4.726,18.146,18.146,0,0,1-.492-2.3,19.114,19.114,0,0,1,.123-2.712,23.772,23.772,0,0,1,.205-2.63c.207-1.112.62-2.194.863-3.328.5-2.329.865-4.748,1.15-7.233a22.993,22.993,0,0,0,.206-3.821A2.018,2.018,0,0,1,143.426,174.61Zm-.411,3.781c.127.116-.043.284,0,.452C142.818,178.755,143.061,178.579,143.015,178.39Zm29.67,5.753c-.009.059-.068.069-.082.123-2.339,5.163-4.081,10.786-6.74,15.575-.893,1.609-1.936,3.074-2.794,4.644.419-.179.642-.609.9-.945a23.071,23.071,0,0,0,2.178-3.493c2.18-4.11,3.809-8.786,5.63-13.192a20.992,20.992,0,0,0,1.027-2.671A.2.2,0,0,1,172.685,184.144Zm26.547,3.945a29.063,29.063,0,0,0-10.6,2.425c-.388.176-1.054.313-1.069.74.209.191.507.065.74.042a39.444,39.444,0,0,0,10.355-2.425,2.97,2.97,0,0,0,1.274-.7C199.8,187.94,199.419,188.081,199.232,188.089ZM185.754,134.5a6.7,6.7,0,0,1,1.6.329c.363.192.466.806.411,1.48a9.3,9.3,0,0,1-.74,2.589,15.7,15.7,0,0,1-4.191,5.711,23.429,23.429,0,0,0,5.265-4.634,15.7,15.7,0,0,0,2.917-5.787c.685-3.2-.6-6.167-3.558-6.888a18.117,18.117,0,0,0-4.953-.279,23.61,23.61,0,0,0-8.507,2.1,26.132,26.132,0,0,0-9.122,6.781c-1.3,1.484-3.075,4.1-3.379,5.6a8.942,8.942,0,0,0-.115,2.583,3.907,3.907,0,0,0,.371,1.314A7.48,7.48,0,0,0,165,148.6a7.256,7.256,0,0,0,4.027.821c-.949-.146-3.39-.6-4.708-1.952a4.493,4.493,0,0,1-.757-4.376c.757-2.233,2.781-4.387,3.851-5.6a22.6,22.6,0,0,1,6.751-5.327c.321.227.72.375.9.74a15.434,15.434,0,0,0-5.795,5.383c.151.075.214-.141.288-.206a24.679,24.679,0,0,1,6.452-3.945,5.034,5.034,0,0,1,.411.575,27.312,27.312,0,0,0-2.918,2.013,8.44,8.44,0,0,0-2.343,2.507,33.018,33.018,0,0,1,5.63-3.74,18.237,18.237,0,0,1,7.191-2.177,5.925,5.925,0,0,1,.781,0,2.894,2.894,0,0,1,1.931.74c-4.826-.6-8.626,1.479-11.507,3.164C178.216,136.061,181.331,133.961,185.754,134.5Zm-3.987-4.273a25.2,25.2,0,0,0-6.164,2.342c-.349-.185-.566-.5-.986-.616a23.279,23.279,0,0,1,6.329-2.178A.707.707,0,0,1,181.767,130.229Zm.535,1.726c.179,0,.007.071-.082.041a26.08,26.08,0,0,0-5.3,2.424,1.857,1.857,0,0,1-.247-.575A33.444,33.444,0,0,1,182.3,131.954ZM55.074,152.583a32.867,32.867,0,0,1,2.754-2.835A15.88,15.88,0,0,0,55.074,152.583Zm51.121,21.862a6.111,6.111,0,0,0,1.767.411,5.639,5.639,0,0,0,2.014-.534c1.257-.471,2.564-1.163,2.508-2.753-.07-1.953-3.252-2.565-4.562-1.274,1.4-.423,3.07-.056,3.329,1.109a2.445,2.445,0,0,1-1.193,2.26,4.274,4.274,0,0,1-4.109.164A1.89,1.89,0,0,0,106.195,174.445ZM209.3,188.417c-.345,1.222-1.5.293-1.891-.41-.44-.79-.491-1.551-.863-2.261-.842-1.606-2.26-3-1.973-5.752.065-.616.2-1.306-.164-1.685-.5-.522-2.112-.135-2.383-.823-.247-.623.2-1.624-.041-2.3-1.523,2.726-4.215,4.424-6.863,6.123a89.506,89.506,0,0,0-7.849,5.219c-.033.008-.041.041-.082.041-.008.032-.041.041-.041.082,3.856-1.327,7.242-5.642,12.863-5.754,1.337-.026,3.167.058,3.205,1.357a3.209,3.209,0,0,1-.411,1.274,2.868,2.868,0,0,1-.617,1.068,1.258,1.258,0,0,1-1.89-1.274c-3.126-.016-5.293,1.4-7.356,2.671a40.337,40.337,0,0,1-4.768,2.754c-.569.252-1.238.361-1.848.657a5.342,5.342,0,0,0-1.274,1.357,19.713,19.713,0,0,1-1.315,2.013c.3.423.194,1,.287,1.561a21.156,21.156,0,0,0,.945,2.8,37.354,37.354,0,0,1,1.644,5.835c.093.542.069,1,.206,1.644.166.79.6,1.667-.083,2.1a3.472,3.472,0,0,1-.7.164c-.711.2-.954.215-1.315-.451-.134-.249-.347-.518-.411-.7-.094-.266-.088-.565-.165-.822-.5-1.684-1.2-3.1-1.808-4.89-.451-1.332-1.053-2.732-1.479-4.315-.221-.821-.79-1.7.041-2.177a19.844,19.844,0,0,1-1.027-3.411,2.974,2.974,0,0,1-.494-.411c-.056,4.769.979,9.012.535,13.767.092.114.407.169.534.411a5.622,5.622,0,0,1,.247,1.643,32.5,32.5,0,0,1,.082,3.617c-.017.723.071,1.44-.2,1.685a.81.81,0,0,1-.986-.042c-.467-.514.061-1.638-.124-2.507-.234.243-.268,1.277-.657,1.561a.683.683,0,0,1-1.069-.781c-.125-.2-.344-.214-.452-.452a6.092,6.092,0,0,1-.164-1.069c-.333.384-.359,1.28-1.11,1.11-.348.247-.881,1.174-1.48.658-.243-.21-.2-1.2-.123-1.808a13.421,13.421,0,0,1,.328-1.685c.294-1.148.775-2.085,1.028-3,.168-.609.225-1.32.369-2.014.267-1.284.581-2.485.9-3.78a7.257,7.257,0,0,0,.369-3.493,104.848,104.848,0,0,1-4.192,11.917,13.372,13.372,0,0,1-1.356,2.671c-.213.3-.48.618-.7.534-.509-.2-.091-1.894.041-2.1.328.083.238.584.329.9a22.745,22.745,0,0,0,2.013-4.356,93.1,93.1,0,0,0,3.945-11.876,14.737,14.737,0,0,0,.575-2.589,26.393,26.393,0,0,0-.206-2.835,48.583,48.583,0,0,0-.863-6.74,6.781,6.781,0,0,1-.288-1.232,7.993,7.993,0,0,1,1.027-1.562c1.009-1.584,1.932-3.273,2.794-4.89a38.318,38.318,0,0,0,1.686-3.452,11.8,11.8,0,0,0,1.026-4.027c-.538-.694-1.233.363-1.52.944-.314.637-.468,1.112-.7,1.6a24.685,24.685,0,0,1-1.685,2.918c-.632.976-1.036,2.084-1.562,3.041-.414.752-.813,1.446-1.274,2.178a1.432,1.432,0,0,1-.493.575,2.253,2.253,0,0,1,.041-.945c-2.439,3.358-5.045,6.877-7.808,10.232-.32.387-.891,1.358-1.314,1.192-.513-.2.056-.868.082-.9.224-.307.583-.779.617-.822.634-.84.76-1.017,1.233-1.643,2.3-3.061,4.451-5.975,6.738-9.164a6.341,6.341,0,0,0,.616-.822,11.955,11.955,0,0,0,.493-1.6c.777-2.636,1.4-5.565,1.932-8.342a15.983,15.983,0,0,0,.329-2.754c.005-.31-.1-.619-.083-.944a7.541,7.541,0,0,1,.37-1.6,11.064,11.064,0,0,1,.782-1.439c.512-.928,1.01-1.866,1.6-2.753a6.857,6.857,0,0,1,.9-1.275,2.606,2.606,0,0,1,1.027-.37c.326.03.786.666.821.986a5.179,5.179,0,0,1-.534,1.932,37.713,37.713,0,0,1-2.26,5.013,45.878,45.878,0,0,0,10.192-18c-.251.049-.431.412-.616.657a27.89,27.89,0,0,1-11.219,8.794c-4.431,1.909-12.416,3.6-17.753,1.068a13.2,13.2,0,0,0-1.931,1.685,14.546,14.546,0,0,1,4.931,3.945c-.421,1.557-1.989,4.224-3.575,4.768a13.756,13.756,0,0,1-4.191,0l.917.948a24.145,24.145,0,0,1-1.41,3.038,4.063,4.063,0,0,1-1.151.822,9.144,9.144,0,0,1-1.274.082,13.766,13.766,0,0,0-2.136.37,2.991,2.991,0,0,1-1.316,2.137,7.267,7.267,0,0,1-1.109.986,9.054,9.054,0,0,1-1.356.452,33.071,33.071,0,0,1-4.6.781,2.378,2.378,0,0,0,1.478.247c.55-.01,1.109-.092,1.562-.124-.572,1.558-2.1,2.184-3.945,2.425a2.014,2.014,0,0,1-.205,0,13.26,13.26,0,0,1-3.822-.74c-1.109-.333-2.311-.781-3.41-1.151-1.67-.561-3.573-.995-5.343-1.479a11.531,11.531,0,0,1-1.767-.493,11.743,11.743,0,0,1-1.562-1.027,8.12,8.12,0,0,0-1.438-.74,3.59,3.59,0,0,0-.945-.37,5.366,5.366,0,0,0-1.685.37,22.148,22.148,0,0,1,.616,5.342,42.048,42.048,0,0,0-5.794,1.808,20.5,20.5,0,0,1-.616,3.246,5.166,5.166,0,0,1-1.274,2.548,8.376,8.376,0,0,1-2.506.822,17.246,17.246,0,0,1-.7,3.04c.655-.1,1.035-.962,1.808-.986a1.168,1.168,0,0,1,1.11,1.4c-.1.476-.793.957-1.233,1.316a5.631,5.631,0,0,0-1.314,1.191c-.174.279-.2.541-.329.74a7.279,7.279,0,0,1-1.109,1.192,1.332,1.332,0,0,1,.657,1.6c-.256.762-1.275,1.327-1.891,1.808-.346.271-.662.585-.986.864-.348.3-.75.513-1.068.78-.644.541-1.2,1.328-1.849,1.973a70.025,70.025,0,0,0-5.63,5.835c3.634-2.935,7.5-6.437,13.355-7.56,1.054-.2,3.275-.81,3.082.656-.117.895-1.3.728-2.218.864a21.839,21.839,0,0,0-9.453,4.233,90.57,90.57,0,0,0-7.52,6.205c-.431.376-.969,1.1-1.644.739a.8.8,0,0,1-.329-.739,5.768,5.768,0,0,0-1.273.328c-.467.3-.573,1.078-1.192,1.356a1.171,1.171,0,0,1-1.685-1.068,1.12,1.12,0,0,1-1.972.287c-.311-.645-.082-2.194-.082-3.04,0-2.2.082-4.115.082-6.288,0-1.05.208-2.135.124-3.04a10.583,10.583,0,0,0-.781-2.219,28.128,28.128,0,0,1-1.849-7.068,55.411,55.411,0,0,1-7.438,1.109c-.9.062-1.835-.028-2.795.041-1.315.095-2.606.392-3.863.575a35.71,35.71,0,0,1-3.986.412c-8.7.3-14.976-3-19.848-6.658-1.469-.282-3.322-.514-4.849-.822-.616-.124-1.277-.257-1.932-.369a13.467,13.467,0,0,1-2.013-.288c-.44-.153-.71-.937-.987-1.438a31.239,31.239,0,0,1-1.6-3.164,6.811,6.811,0,0,1-.576-1.809,2.313,2.313,0,0,1,.124-1.233c.118-.148.348-.113.535-.206.406-.2.845-.6,1.438-.945a8.652,8.652,0,0,0,1.521-.821c.013-.014.076-.071.082-.082.257-.461.419-1.017.658-1.52.23-.484.478-.962.74-1.438.5-.92,1.132-1.795,1.6-2.712,1.049-2.045,1.7-4.246,2.794-6.164,1.61-1.377,3.393-2.58,4.931-4.027a20.415,20.415,0,0,0,.616-2.219,12.765,12.765,0,0,1,.617-2.3c.056-.112.262-.206.411-.37.38-.416.761-1.079,1.192-1.644a6.275,6.275,0,0,1,1.315-1.48,17.65,17.65,0,0,1,1.644-.7c1.068-.486,2.1-1,3.205-1.479.543-.233,1.142-.4,1.643-.657,1.415-.737,2.195-2.449,3.041-3.945.26-.458.078-1.323.452-1.849.207-.145.416.107.575,0,1.007-.622,2.108-1.152,3.123-1.767.385.136,1,.037,1.4.164.073-.443-.177-.562-.206-.9.863-.768,1.768-1.492,2.63-2.261.165-1.6.459-3.075.535-4.767.059-.214.244-.3.534-.287,1.258-1.772,3.249-2.853,4.6-4.6,1.287-1.665,2.169-4.137,5.466-3.617.287-.609,0-1.4.452-1.808.106-.094.379-.082.576-.165.533-.223,1.126-.527,1.726-.739a11.371,11.371,0,0,1,2.549-.74c.2.124.106.388.122.534,2.568.324,4.305,1.821,6.617,2.384,2.631.64,5.447-.082,7.685-.822,4.5-1.49,8.323-3.778,13.89-4.069a24.074,24.074,0,0,0-2.795-7.726,2.9,2.9,0,0,1-.452-1.027c-.016-.745.921-1.532,1.4-1.972a9.8,9.8,0,0,1,3.141-1.961,10.863,10.863,0,0,1,4.241-.518,14.5,14.5,0,0,0-.18-1.816c-.16-.745-.875-1.3-1.325-1.869-1.555-1.981-2.04-4.849-2.285-7.285a1.976,1.976,0,0,1,.32-1.472c.222-.3.8-.829,1.156-.835a3.166,3.166,0,0,1-.6-.294,6,6,0,0,1-.725-.429,33.586,33.586,0,0,1-6.9-5.589,11.13,11.13,0,0,1-2.465-4.685A10.056,10.056,0,0,1,111.5,71.5a12.739,12.739,0,0,1,7.52-6.781,86.991,86.991,0,0,1,11.465-2.836c3.177-5.121,5.351-11.249,11.055-13.931a12.594,12.594,0,0,1,6.616-1.6,15.153,15.153,0,0,1,1.644.37,24.146,24.146,0,0,1,4.273,1.685,12.142,12.142,0,0,0,5.178.78,10.115,10.115,0,0,1,1.932-.041,5.806,5.806,0,0,1,1.275.575,10.313,10.313,0,0,1,5.505,5.548c.164.431.234.906.412,1.4.209.58.617,1.082.863,1.644,1.765,4.034,1.674,9.892,2.958,14.548-.072-2.093-.305-4.379-.493-6.493.085.08.053.276.123.37A39.658,39.658,0,0,1,184.479,74.5a13.018,13.018,0,0,1,2.055,2.014,9.079,9.079,0,0,1,2.055,6.082,10.063,10.063,0,0,1-2.26,5.466c-.6.761-1.049,1.544-1.644,2.218a31.248,31.248,0,0,1-8.876,6.534c-.366.2-.837.452-1.275.658a6.6,6.6,0,0,0-1.315.575,5.361,5.361,0,0,0-.616,1.192c-.209.393-.425.811-.617,1.15a49.452,49.452,0,0,0-2.671,4.4c-.348.775-.709,1.8-1.357,2.179-.624.368-1.519.133-2.26.328-.527.733-1.028,1.492-1.6,2.178a30.651,30.651,0,0,1,4.191,3.616c.338.338,1.126.962,1.233,1.357.048.175-.044.338.041.452a34,34,0,0,0-4.027,6.862c1.872.406,4.219.694,6.739,1.233-.449.305-3.04,1.561-3.04,1.561s-1.639-.213-2.507-.205a3.73,3.73,0,0,0,1.644.657c-1.816,1.486-4.15,2.453-5.343,4.562.54-.4,1.009-.975,1.6-1.438a29.793,29.793,0,0,1,3.822-2.425c.659-.368,1.376-.641,2.055-1.027a32.09,32.09,0,0,1,4.4-1.85,20.532,20.532,0,0,1,3.781-.9c.46-.073,1.357-.165,1.357-.165s3.026,2.861,4.109,3.945a27.124,27.124,0,0,0-17.876,7.315c-.274.25-.863.7-.863.7s-1.385-1.636-1.807-2.1-.817-.992-1.562-1.027a2.162,2.162,0,0,0,.37.41c.92.936,1.839,2.1,2.836,3a4.912,4.912,0,0,1-.823.863c-.986-1.109-2.1-2.093-3.041-3.246.131-.171.174-.429.329-.575a5.97,5.97,0,0,0-2.26,2.013,10.033,10.033,0,0,0-1.685,2.548c-.539,1.444-1.462,3.069-1.027,5.055a12.263,12.263,0,0,1,1.356-4.4,9.171,9.171,0,0,1,1.6,1.562c.528.568,1.159,1.026,1.685,1.561a9.834,9.834,0,0,0-.9,3.821,7.341,7.341,0,0,0,2.712,5.754c3.385,2.753,9.685,1.652,13.643.247a26.985,26.985,0,0,0,13.932-11.342c1.614-2.69,2.126-7.648.083-9.863a6.171,6.171,0,0,0-1.809-1.355c-.207-.1-.739-.288-.739-.288s-3.042-3.5-3.9-4.6c4.118.477,7.237,2.339,8.959,5.342a10.618,10.618,0,0,1,1.315,5.754,13.654,13.654,0,0,1-1.479,5.63c.554.683,1.431,1.22,1.644,2.178a10.113,10.113,0,0,1,.082,1.356c.023.438.12.886.124,1.274,0,.2-.107.433-.082.616.052.406.778.889,1.068,1.151a13.689,13.689,0,0,1,1.068,1.15c.468,2.776.442,5.619.7,8.219a32.877,32.877,0,0,0,1.727,7.192,53.57,53.57,0,0,0,2.548,6.369c1.1,2.277,2.786,4.758,2.095,7.972a.443.443,0,0,1-.575-.163,2.787,2.787,0,0,1-.041.7c1.162.2,2.38.554,2.589,1.767a12.48,12.48,0,0,1,0,1.6c.1,2.622,1.666,3.9,2.548,5.876A5.056,5.056,0,0,1,209.3,188.417Zm-53.916-40.683c-.02.2.3.373.452.534.563-.45,1.392-.634,1.973-1.068-.048-.062-.036-.183-.165-.165C156.882,147.259,156.117,147.48,155.385,147.734Zm-.781-.534c.249.2.487-.115.7-.206A1.515,1.515,0,0,0,154.6,147.2Zm.206-3.206a.643.643,0,0,0-.288-.7c-.09-.029-.2.031-.288.041a20.826,20.826,0,0,1-3.246.329c-.785-.028-1.512-.18-2.178-.165,1.271.743,2.455,1.572,3.74,2.3a1.93,1.93,0,0,1,.739-.863C153.747,144.626,154.71,144.326,154.81,143.995Zm8.506-33.122a32.389,32.389,0,0,1-1.849,4.439c-.246.458-.565.9-.781,1.356-.263.553-.363,1.14-.616,1.644-1.231,2.447-3.574,4.053-5.219,6.123a26.231,26.231,0,0,1-2.014,2.548,15.17,15.17,0,0,0-2.753,2.712c-.076.137.011.036.083,0a16.371,16.371,0,0,1,2.671-2.342,14.207,14.207,0,0,0,1.027-1.233c1.324-1.506,4.418-4.529,4.828-5a87.114,87.114,0,0,0,5.528-8.722C163.924,111.881,163.593,111.4,163.315,110.872ZM153,120.817c.1.029.12-.128.165-.205a6.145,6.145,0,0,0,.945-2.835,3.548,3.548,0,0,0-.414-1.55c-.066-.136-.154-.26-.221-.4a.92.92,0,0,0-.2-.333c-.065.054-.031.169-.02.241a13.563,13.563,0,0,1,.124,1.454A10.427,10.427,0,0,1,153,120.817Zm1.52-8.506c-.466-3.054-1.1-5.937-1.685-8.876a2.255,2.255,0,0,1-.37-.493c.316,1.682.624,3.567.863,5.341.086.64.082,1.3.205,1.891a15.29,15.29,0,0,1,.493,1.931,6.074,6.074,0,0,0,0,1.274,6.415,6.415,0,0,0,.452.863c.454.9.928,1.764,1.4,2.63.114.209,1.471-1.108,1.575-1.21a6.7,6.7,0,0,0,1.706-2.107c.225-.525.5-1.03.755-1.543a6.092,6.092,0,0,1,.731-1.551,23.484,23.484,0,0,1-3.411,2.589c1.231-1.509,2.714-2.765,4.069-4.15a4.163,4.163,0,0,0,2.1-1.685c.891-1.972-.082-3.041-.082-3.041s-.946-.309-.821.411c-1.521,1.29-5.624,2.237-7.767.986-.166-.1-.318-.262-.494-.247A21.571,21.571,0,0,1,154.521,112.311Zm6.617-8.1c.131-.129.362-.158.492-.287-.552-.063-1.117-.114-1.643-.205a17.642,17.642,0,0,1-4.027,1.191C157.922,105.055,159.4,104.433,161.138,104.215Zm-4.89,14.3c.582-.582,1.519-.81,1.972-1.52A4.413,4.413,0,0,0,156.248,118.516Zm.986-1.52c.289-.189.691-.4.741-.658a4.333,4.333,0,0,0-1.685,1.192C156.562,117.334,156.927,117.2,157.233,117Zm10.11-17.383c-.211.118-.491.166-.7.287-.37,1.182-1.286,1.832-1.068,3.493A11.669,11.669,0,0,0,167.343,99.613Zm-35.464-34.56c.255,3.508,3.278,5.8,5.836,7.15a29.354,29.354,0,0,0,4.6,2.218,48.712,48.712,0,0,0,15.165,2.22,17,17,0,0,0,8.177-1.726c2.05-1.071,4.217-2.8,4.027-5.754-.211,2.588-1.94,3.948-3.781,4.973a16.053,16.053,0,0,1-4.027,1.561,4.376,4.376,0,0,1-1.521.206c-.141-.454.122-.889.205-1.316a24.385,24.385,0,0,0-.165-7.972,12.267,12.267,0,0,1-.451-3,4.474,4.474,0,0,1,1.274-2.425,10.417,10.417,0,0,0,1.685-3.123c1.064-2.931-.443-6.909-3.9-6.821A2.705,2.705,0,0,0,156.371,54a5.542,5.542,0,0,0,3.164,4.767,3.82,3.82,0,0,1-1.355.287c-2.971.017-3.924-2.935-5.055-5.054a11.1,11.1,0,0,0-2.1-2.959,8.464,8.464,0,0,0-3.246-1.849,8.565,8.565,0,0,0-5.056.494,12.53,12.53,0,0,0-4.809,3.239,24.742,24.742,0,0,0-2.372,3.608c-.757,1.187-2.264,2.785-2.639,4.125-.208.744-.543,1.316-.739,1.973A6.38,6.38,0,0,0,131.879,65.053Zm-.37,27.41c1.575.724,3.179,1.466,4.768,2.177,5.506,2.468,11,5.44,19.273,5.055a46.382,46.382,0,0,0,26.013-9.123,12.342,12.342,0,0,0,3.006-2.939,9.235,9.235,0,0,1-3.056-.011c-1.281-.128-2.581-.158-3.857-.287-1.383-.14-2.779-.237-4.156-.427-.808-.112-1.574-.181-2.41-.216a13.385,13.385,0,0,1-1.735-.22,5.072,5.072,0,0,1-1.044-.391,29.037,29.037,0,0,1-11.487,2.6,47.035,47.035,0,0,1-6.37-.411c-1.988-.236-4.063-.3-5.424-1.274a18.755,18.755,0,0,0,5.384.74c1.915.09,3.908.307,5.835.247a32.5,32.5,0,0,0,7.972-1.233,16.423,16.423,0,0,0,3.589-1.648,8.554,8.554,0,0,0,3.027-2.832,7.818,7.818,0,0,0,1.192-4.89,5.949,5.949,0,0,0-.288-2.178,12.727,12.727,0,0,1-.576,3.863c-1.894,5.156-6.417,6.508-11.506,7.4a41,41,0,0,1-10.4.082c-6.508-.65-13.687-4.5-18.452-8.835a15.271,15.271,0,0,1-3.082-3.863,7.934,7.934,0,0,1-1.319-4.618c.212-1.922,1.912-4.016,3.06-5.512.095-.123.115-.192.261-.221a8.387,8.387,0,0,0-1.2.164,39.764,39.764,0,0,0-4.809,1.014c-.826.209-1.636.5-2.441.783-3.738,1.312-8.026,4.334-8.717,8.512-.61,3.681,1.273,6.194,3,8.014C117.808,84.347,127.353,90.55,131.509,92.463ZM152.261,113.3a6.232,6.232,0,0,0-.37-2.671C152.032,111.588,151.524,113.032,152.261,113.3Zm-27.2-13.545a4.761,4.761,0,0,1,.476,2.207,4.928,4.928,0,0,0,.714,2.461,4.722,4.722,0,0,0,1.808,1.233c.221.067.35-.17.452-.083.133,2.007.007,3.859.164,5.753a8.3,8.3,0,0,0,1.151,3.164,9.762,9.762,0,0,0,1.644,2.26,6.5,6.5,0,0,1,1.027.9,29.445,29.445,0,0,1,1.438,3.288c.506,1,1.24,2.009,1.808,2.959a15.749,15.749,0,0,0,4.315,5.177,11.649,11.649,0,0,0,3.78.823,19.324,19.324,0,0,1-3.246-1.11c-.246-.137-.388-.379-.658-.452a24.712,24.712,0,0,1-4.067-8.013c-.132-.432-.329-.848-.452-1.274-.542-1.868-.728-3.852-1.151-5.753-.419-1.879-1.1-3.618-1.4-5.425.279.775.621,1.582.986,2.425.342.79.84,1.543,1.109,2.342a42.285,42.285,0,0,1,.781,4.356c.146.7.334,1.394.534,2.054.207.687.469,1.35.617,1.973a13.5,13.5,0,0,0,1.027,2.466,13.257,13.257,0,0,0,2.342,3.821,8.139,8.139,0,0,0,1.644,1.438,4.587,4.587,0,0,0,3.7.164c.864.388,1.936.945,2.917.535a2.409,2.409,0,0,0,1.52-1.644c.163-.515-.162-1.063-.246-1.644.383-.555.721-1.158,1.109-1.767a17.522,17.522,0,0,0,1.151-1.767,11.4,11.4,0,0,0,.616-2.261,15.977,15.977,0,0,0,.3-1.854,17.338,17.338,0,0,0,.083-2.072c0-.18-.01-.36-.018-.541a1.251,1.251,0,0,0-.11-.655c-.237-.385-.583-.278-.945-.192-.171.04-.341.084-.51.13-.33.088-.658.183-.986.278a9.708,9.708,0,0,1-1.635.387,3.549,3.549,0,0,1-2.26-.74c-.755-.447-1.583-.553-1.849-1.274.512-.772,1.8-.666,2.548-.164.2-.047-.307-.321-.041-.452a9.687,9.687,0,0,1,1.315.9,1.609,1.609,0,0,0,1.594.2,5.072,5.072,0,0,0,1.014-.559c.359-.223.364-.437.355-.828a5.088,5.088,0,0,0-.129-1.319c-.065-.221-.223-.373-.247-.616-.171-1.759-.163-3.528-.275-5.291-.059-.944.038-3.658-1.5-3.447a7.18,7.18,0,0,0-2.4,1.3,18.24,18.24,0,0,1-2.776,1.357c1.352-.852,2.6-1.809,3.946-2.671a30.4,30.4,0,0,0-4.479,1.931,14.061,14.061,0,0,1-1.48.657,3.128,3.128,0,0,1-2.1-.452c-1.168-.493-3.1-1.039-4.314-1.643s-3.152-3.646-4.012-4.742c-.452-.576-1.733-3.043-2.162-3.028a1.96,1.96,0,0,0-1.138.708,4.045,4.045,0,0,0-.7,2.541,3.492,3.492,0,0,0,.657,1.89c.617,1.143,1.223,2.234,1.85,3.288a25.6,25.6,0,0,1,2.507,4.356,68.464,68.464,0,0,1-4.11-5.794c.106.5.2,1,.329,1.479-.218-.056-.046-.5-.287-.535-.178.334.011.89-.083,1.233a15.555,15.555,0,0,1-.206-2.054c-.3.018.029.658-.2.74-.278-.9-.257-1.736-.534-2.548a8.538,8.538,0,0,0-.534-.945A12.431,12.431,0,0,1,126,96.037c.139-.018.231.283.283.374a1.3,1.3,0,0,0-.093-1.657c-.213-.214-.494-.407-.539-.74-.1-.713,0-1.062-.464-1.65-.37-.473-.626-1.022-1.3-1.083-1.28-.114-1.776,1.519-1.089,2.444-.487-.517-1.046-2.144-.551-2.869a1.247,1.247,0,0,1,.592-.71c-.362-.66-1.079-.345-1.345.178a2.91,2.91,0,0,0-.228,1.573,10.244,10.244,0,0,0,1.243,3.812C123.289,97.1,124.395,98.3,125.059,99.752Zm-6.535,8.736a6.763,6.763,0,0,0,1.89,1.644,4.017,4.017,0,0,1-1.151-2.63c0-1.535,1.134-2.379,1.809-3.123a9.275,9.275,0,0,0-1.891.822c-.456.258-1.382.734-1.479,1.15-.088.378.227.816.369,1.11C118.244,107.82,118.354,108.211,118.523,108.489Zm-27,12.452a1,1,0,0,0-.082.9c.288.662,1.992,1.267,2.918,1.357,1.178.114,2.7-.475,1.89-1.274a1.543,1.543,0,0,0-.37-.822C95.138,120.287,92.3,119.613,91.524,120.941Zm-43.314,38.34c.162-.059.38-.276.371-.37C48.47,159.048,48.277,159.1,48.211,159.281Zm44.3,46.725a1.636,1.636,0,0,1-.453.041,8.172,8.172,0,0,0-.041,1.643A10.452,10.452,0,0,1,92.511,206.006Zm14.177-12c-3.815,4.266-8.053,8.331-11.3,13.027a2.769,2.769,0,0,1,1.11-.288,46.781,46.781,0,0,1,4.89-6.616C103.152,198.054,105.128,196.172,106.688,194.006Zm-4.356,1.192c.155-.176.423-.351.37-.493-.462-.051-.775.346-1.109.576-.35.24-.713.47-1.068.7-.476.936-1.109,1.933-1.48,2.835C100.083,197.627,101.3,196.367,102.332,195.2ZM99.7,146.788a30.045,30.045,0,0,0,2.507,4.274c2.676-.368,5.456-1.3,8.3-1.356.739-.015,1.594-.024,2.342-.082a2.854,2.854,0,0,1,1.151-.041,1.45,1.45,0,0,1,.617.534c.206.567.49,1.309.74,1.849.448-.079.973-.2,1.52-.329a4.789,4.789,0,0,1,1.521-.329c.275.051.251.248.493.329,1.736-.675,3.625-1.037,5.466-1.685,1.747-.614,3.554-1.129,5.465-1.685a11.421,11.421,0,0,1,3.082-.493c2.356-.036,4.658-.014,6.945-.123a28.144,28.144,0,0,0,3.37-.247c.834-.146,2.548-.657,2.548-.657s4.412.927,5.835,1.4a31.607,31.607,0,0,0,3.494.987c.321.058.378.159.411,0,.087-.425-.885-.486-1.11-.74a49.229,49.229,0,0,1-5.712-4.027c-1.049-.862-2.479-2.726-3.974-2.491a5.231,5.231,0,0,0-1.243.4,20.2,20.2,0,0,0-2.791,1.6,12.79,12.79,0,0,0-1.627,1.384,21.162,21.162,0,0,0-.679-3.032,30.456,30.456,0,0,0-1.028-3.411,17.275,17.275,0,0,0-.658-1.6c-.186-.335-.477-.659-.7-.986a26.427,26.427,0,0,1-1.849-3.206c-1.495-3.021-2.546-6.311-4.027-9.451a12.67,12.67,0,0,1-1.6-5.754,20.856,20.856,0,0,1-3.287-1.479,23.148,23.148,0,0,1-2.712-2.054c-.423-.332-.844-.555-1.192-.863a22,22,0,0,0-1.52-1.6,20.43,20.43,0,0,1,2.794,4.849A11.066,11.066,0,0,1,123,118.8c.107.739.434,1.54.616,2.343.186.82.341,1.649.575,2.383.366,1.148.778,2.249,1.15,3.288.142.4.188.82.329,1.191a14.3,14.3,0,0,0,1.768,3.042,27.43,27.43,0,0,0,6.944,6.329c.2.137.571.259.576.575-6.392-2.154-9.272-8.135-11.835-14.055-.379-.875-.669-1.825-1.11-2.629a6.9,6.9,0,0,0-2.466-2.672,5.829,5.829,0,0,0-1.725-.657,7.435,7.435,0,0,0-1.6.246,38.408,38.408,0,0,0-7.191,2.178,18.4,18.4,0,0,1-2.835.945c-.517.1-1.044.038-1.52.165-.73.194-1.348.507-1.972.7a9.2,9.2,0,0,1-2.22.452c-1.325.08-2.442-.022-3.7.165a1.035,1.035,0,0,1-.123.657,3.9,3.9,0,0,1-1.644.534,5.006,5.006,0,0,1-2.506-.452,3.126,3.126,0,0,1-1.275-.493,1.7,1.7,0,0,1,0-2.054c.016-.155.389-.106.288-.247a2.068,2.068,0,0,0-2.013-.575,1.836,1.836,0,0,0-.74,2.465,4.853,4.853,0,0,0,2.1,1.685,35.1,35.1,0,0,0,8.3,1.438,8.7,8.7,0,0,0,2.754-.534,14.063,14.063,0,0,0,2.26-.74c.694-.337,1.4-.563,2.1-.9,1.037-.509,2.112-.861,3.164-1.315.281-.121.837-.225.74-.7-2.312.762-4.931,1.523-7.561,2.178-.292.072-.97.409-.987-.041s.589-.193.864-.205a11.117,11.117,0,0,0,2.136-.576,45.626,45.626,0,0,0,6.247-1.972,11.174,11.174,0,0,1,4.4-1.068,9.125,9.125,0,0,1,4.438,1.274,5.347,5.347,0,0,1,1.808,1.644,2.926,2.926,0,0,1,.246,1.479c-.054.364-.3.581-.288.822a18.3,18.3,0,0,0,4.849,8.342,35.738,35.738,0,0,0,6.74,4.767c.338.19.844.342.986.7-.411.135-.757-.239-1.068-.411-1.1-.607-2.124-1.213-3.123-1.89-2.6-1.762-5.23-3.886-6.74-6.658a26.845,26.845,0,0,1-1.891-4.807c-.492-.093-.686-.424-.986-.74-.558-.591-.949-1.332-1.438-1.931-.74.058-1.367-.584-2.26-.617-.192-.007-.372.085-.575.083-.41-.006-2.269-.881-2.425-.329s.678.469.9.74c-1.044.227-2.022.468-3,.7a24.555,24.555,0,0,0-3.041.7,16.445,16.445,0,0,0-2.054,1.191A16.186,16.186,0,0,1,104.141,126c-4.562,1.7-11.713.788-15.082-1.274-.3-.185-.692-.592-.986-.658-.174-.038-.463.021-.7,0-1.54-.134-3.283-1.244-4.562-.575a8.333,8.333,0,0,0-1.191,1.068c-.446.364-.916.7-1.315.986A12.771,12.771,0,0,0,77.8,127.6a9.187,9.187,0,0,0-1.273,2.589,14.222,14.222,0,0,0-.7,3.164c.6.014,1.089-.276,1.6-.246.786.045,1.458.642,2.261.7.544.621.976,1.353,1.561,1.932.035.116.047.254.082.37,1.286,1.491,2.293,3.378,3.78,4.6.214.176.534.354.575.575-1.779-.484-3-1.865-4.192-3.247a7.109,7.109,0,0,0-1.931-1.767,6.758,6.758,0,0,0-2.795-.863,3.819,3.819,0,0,0-2.055.371c-.189.133-.293.423-.534.575-.155.1-.385.074-.535.246-.509.583-.054,1.96-.082,2.795a6.211,6.211,0,0,0-1.685-.452,8.614,8.614,0,0,0-1.972-.206,1.842,1.842,0,0,0-.945.452c-.568.376-1.012.754-1.561,1.069a4.679,4.679,0,0,0-.863,1.808c-.094.4-.077.879-.205,1.274a4.981,4.981,0,0,1-1.192,1.479c-1.4,1.347-3.511,1.978-5.26,2.753a9.615,9.615,0,0,0-5.26,5.465c-.079.1.108-.1.165-.123-.115.118-.182.283-.33.37.1.126.183-.1.206-.124,1.136-1.124,2.226-2.386,3.411-3.41.12-.1.551-.486.411-.411-.044.045-.114.063-.163.1a5.024,5.024,0,0,1,.943-.638c.335-.231.755-.66,1.11-.452a7.14,7.14,0,0,1-1.068,1.191c-1.838,1.96-3.382,4.212-5.1,6.247-.7.834-1.514,1.53-2.137,2.425a27.236,27.236,0,0,0-5.712,8.425c-1.064,2.268-2,5.2-4.11,6.492a5.78,5.78,0,0,1-1.315.452c-.343.094-1.1.272-1.151.617-.037.239.413.907.575,1.15.709,1.058,1.526,2.157,2.178,3.041,1.441-1.157,3.805-.514,5.548,0,1.173.345,2.386.548,3.534.822a31.183,31.183,0,0,1,5.672,1.932c.216.1.566.214.616.493a3.161,3.161,0,0,1-1.522-.041c-1.6-.15-3.446-.225-4.971-.452-.105.066.074.158.082.165a7.4,7.4,0,0,0,.739.493,28.8,28.8,0,0,0,13.315,4.89c1.991.168,4.07.244,6.2.329-4.222-.9-7.125-3.121-11.383-3.986,2.5-.144,4.471.689,6.451,1.316a27.509,27.509,0,0,0,6.7,1.151A46.78,46.78,0,0,0,87.7,184.185c3.129-.777,6.224-1.678,9.37-2.425,1.066-.253,2.16-.416,3.205-.739a45.215,45.215,0,0,1,13.479-2.26c.155-1.454.711-2.914.863-4.357.052-.5.035-.99.124-1.479.074-.414.261-.8.328-1.233.2-1.332.391-2.693.493-4.069.049-.655-.056-1.344,0-2.013a33.667,33.667,0,0,0-.329-7.4c-.052-.367-.028-.754-.082-1.109-.049-.333-.194-.625-.246-.945-.058-.358-.031-.733-.082-1.11a7.57,7.57,0,0,0-1.561-3.328,19.417,19.417,0,0,0-9.576,1.192c-.935.385-1.995.494-2.917.781-.948.295-1.968.493-2.959.74-.964.241-1.927.528-2.877.822s-1.945.5-2.918.781a17.889,17.889,0,0,1-3.082.658,6.7,6.7,0,0,1-3.247-.534c-.424-.175-.92-.333-1.356-.534s-.781-.611-1.192-.74a5.373,5.373,0,0,0-2.425.164c-.453.078-.93.1-1.438.165a36.7,36.7,0,0,0-4.849,1.151,5.593,5.593,0,0,0-1.48.534,4.8,4.8,0,0,0-.7.781c-1.181,1.379-2.523,2.643-3.534,4.069-.414.583-.662,1.34-1.315,1.725-.247-.34.083-.717.246-.986a31.4,31.4,0,0,1,3.781-4.6c.191-.213.64-.565.534-.7-.263-.331-.943.395-1.068.493a26.658,26.658,0,0,0-5.384,5.507c-.272.373-.569.832-.9.945a1.006,1.006,0,0,1-1.356-.821c-.01-.6.712-1.266,1.151-1.809a27.946,27.946,0,0,1,4.068-4.069c.134-.111.345-.25.288-.328a6.926,6.926,0,0,0-2.712,1.355,16.549,16.549,0,0,0-2.918,3.411c-.314.392-1.249,1.582-1.685,1.438-.758-.251-.271-2.289-.165-2.753a6.041,6.041,0,0,1,3.288-4.027,21.308,21.308,0,0,1,2.137-.781,17.133,17.133,0,0,1,3.04-1.192c-1.834-.161-3.275-.655-5.219-.822-.864-.074-1.872,0-2.959,0-.84,0-2.4.037-2.588-.369-.28-.612.792-1.378,1.232-1.644,1.982-1.2,5.34-.692,7.849-.452,3.786.362,7.285.658,10.069,1.89a5.4,5.4,0,0,1,3.082-.041c-2.177-2.2-5.93-3.32-9.164-4.52-.18-.067-.578-.051-.576-.371a9.207,9.207,0,0,1,2.836.288,16.069,16.069,0,0,1,2.589.74c1.556.606,3,1.747,4.685,1.931a7.356,7.356,0,0,1,.862.042,6.2,6.2,0,0,1,2.178,1.4c.952.727,1.788,1.011,2.26,1.932a16.115,16.115,0,0,0,2.959.041c.444-.085.928-.35,1.4-.493a6.529,6.529,0,0,0,1.439-.493,3.436,3.436,0,0,0,.041-1.357,5.81,5.81,0,0,0-.164-1.356c-.1-.247-.506-.546-.782-.822-1.5-1.5-2.4-2.863-3.78-4.4-.31-.345-1.52-1.216-1.52-1.767a.992.992,0,0,1,.821-.9c.55-.066,1.123.448,1.52.781a23.269,23.269,0,0,1,3.246,3.739c1.057,1.329,1.967,2.605,3.083,3.863.255.288.9,1.124,1.192,1.151.1.009.361-.171.452-.124-2.943-4.21-6.293-8.37-9.369-12.657-.385-.535-1.188-1.333-1.192-1.972a1.345,1.345,0,0,1,1.6-1.233c.365.077.9.832,1.192,1.192a67.912,67.912,0,0,1,7.027,9.739c.036-.319.071-.641.123-.945a12.294,12.294,0,0,0-1.52-3.246,22.763,22.763,0,0,0-2.8-4.356c-.37-.362-.909-.617-1.068-1.069a1.736,1.736,0,0,1,1.4-2.178c.376-.034.671.154.821.123a3.931,3.931,0,0,1-.082-.9.811.811,0,0,1,.9-.452c.242.053.593.579.781.822a58.817,58.817,0,0,0,4.685,5.712c.105.1.188.318.37.287a25.89,25.89,0,0,0-4.6-9.616c2.328,1.93,3.8,5,4.931,8.137.389,1.079.658,2.247,1.11,3.288a9.557,9.557,0,0,1,.493,1.027c.221.664.55,1.839-.493,1.684-.578-.086-.427-.764-.658-1.4-.444-1.22-1.646-2.081-2.712-3a22.905,22.905,0,0,1-2.63-3A71.2,71.2,0,0,0,99.7,146.788Zm-2.548,2.055c-.006.24-.139.354-.123.616a12.966,12.966,0,0,0,1.356,1.438C97.957,150.233,97.6,149.5,97.154,148.844ZM118.4,167.87a28.345,28.345,0,0,1,.206,4.973c1.144-.637,2.32-1.241,3.37-1.973a7.831,7.831,0,0,0-.452-1.644c-.168-.582-.177-1.214-.329-1.808-.061-.237-.221-.458-.288-.7-.153-.544-.214-1.15-.328-1.726-.34-1.714-.765-3.37-1.151-5.013-.394-1.68-.9-3.314-1.274-4.89a3.994,3.994,0,0,0-.493-1.562c-.569.13-1.127.27-1.685.411.175.937.386,1.8.534,2.712.152.942.134,1.923.328,2.918.079.4.294.807.411,1.233C117.858,163.025,117.971,165.481,118.4,167.87Zm3.822,4.4c-.052-.249-.171-.431-.206-.7-1.128.652-2.247,1.314-3.411,1.931.056.094-.106.154,0,.165C119.8,173.185,121.091,172.808,122.222,172.267Zm12.492-1.931a28.326,28.326,0,0,0-2.795-.945c.108.1.3.116.329.288C133.09,169.851,133.916,170.257,134.714,170.336Zm13.89-9.78c.8-.654,1.809-.988,2.3-1.644.127-.168.146-.43.288-.657.3-.474.748-.84,1.027-1.356a3.807,3.807,0,0,0,.534-1.85,2.818,2.818,0,0,0-.739-1.808,5.577,5.577,0,0,0-.986-.575c-.323-.192-.679-.4-.987-.576-.676-.381-1.294-.538-2.137-.986-.314-.166-.621-.451-.986-.657-.277-.157-.583-.242-.822-.412a4.99,4.99,0,0,0-2.3-.863c-.454.034-.873.277-1.356.329-.887.1-1.936.04-3,.083-2.45.1-5.063.052-7.479.287a6.6,6.6,0,0,0-1.4.164c-.265.119-.3.455-.616.575a20.742,20.742,0,0,1-2.26.493c-1.529.365-2.918.736-4.4,1.11a12.534,12.534,0,0,0-2.26.534c-.952.492-.749,1.582-.534,2.712.115.6.293,1.182.369,1.685a15.243,15.243,0,0,0,.411,2.383,13.176,13.176,0,0,0,2.589,4.4c.234.273.364.648.575.863a5.324,5.324,0,0,0,.616.411,5.675,5.675,0,0,0,1.972,1.192,1.7,1.7,0,0,0,.412.37,20.861,20.861,0,0,0,2.63,1.109c.89.358,1.808.713,2.712,1.028a28.954,28.954,0,0,0,5.753,1.767c1.112-.573,1.61-1.76,2.384-2.672,1.709-.191,1.544-2.279,2.958-2.794a11.638,11.638,0,0,0,1.972-.575C147.275,163.787,147.232,161.678,148.6,160.556Zm8.794,2.794a6.99,6.99,0,0,0-1.4-1.356,7.561,7.561,0,0,0-1.767-.041,29.4,29.4,0,0,1-3.657-.328c-.085.129-.513.321-.37.411a19.415,19.415,0,0,1,4.274.74c.633.144.97.131,1.274.534a1.369,1.369,0,0,1,.083,1.4c-.507,1.037-2.012,1.482-3.452,1.562-1.191.065-2.723-.259-3.534.2a19.328,19.328,0,0,1,3.534,0c1.213,0,2.336-.3,3.493-.328A17.943,17.943,0,0,0,157.4,163.35Zm5.712-6.082s-.766-.184-1.151-.287a14.5,14.5,0,0,1-2.3-.616c-.493-.231-.935-.7-1.439-.987a10.113,10.113,0,0,0-1.643-.781,9.378,9.378,0,0,0-1.521-1.274,11.042,11.042,0,0,0-1.562-1.233,9.7,9.7,0,0,0-1.438-.452,29.272,29.272,0,0,1-4.233-1.52c1.864.56,4,.846,5.876,1.4.383-.277.706-.456,1.233-.862-.555-.078-1.063-.552-1.644-.7-.413-.1-.924-.121-1.4-.2a18.515,18.515,0,0,0-6.329-.452,5.252,5.252,0,0,1,1.438.862,9.922,9.922,0,0,1,1.685.371c1.775.9,4.031,1.482,5.055,2.712a9.384,9.384,0,0,1,1.52,2.836,13.455,13.455,0,0,1-.945,2.589c-.48.755-1.086,1.406-1.438,2.014a5.36,5.36,0,0,0,1.726-1.562,7.2,7.2,0,0,0,1.027-2.26,3.973,3.973,0,0,1-1.6,3.657c-.117.1-.383.253-.288.328,2.015.017,4.408.441,6.37.329a3.424,3.424,0,0,0,2.013-.575,9.3,9.3,0,0,0,1.233-1.192C163.593,159.1,163.111,157.268,163.111,157.268Zm-3.411-3.411c-.266.364-.614.569-.875.937,1.423.454,2.69,1,4.04,1.529A17.05,17.05,0,0,0,159.7,153.857Zm33.246,5.958c-.917,1.767-2.255,3.249-3.206,4.808,1.848-.782,3.464-1.8,6.124-1.767-.586-2.222-.813-4.8-1.233-7.191-.3.545-.7.994-1.028,1.52A4.027,4.027,0,0,1,192.945,159.816Zm-4.356-4.273c1.231-2.06,3.155-4.072,4.15-6.493.557-1.352,1.2-2.874.576-4.438C192.133,148.62,190.2,152.1,188.589,155.543Zm6.493,14.382a17.853,17.853,0,0,1-2.425.9,8.608,8.608,0,0,0-1.4.945,28.539,28.539,0,0,0-3.7,3.328c.368.177.192.9.206,1.233,2.338-1.963,4.862-3.74,7.274-5.63C194.834,170.436,195.244,170.016,195.082,169.925Zm1.027-4.561c-.165-.123-.182-.139-.329-.124a21.479,21.479,0,0,0-7.068,2.3c-.29.146-.714.2-.782.576C190.746,167.288,193.007,165.906,196.109,165.364ZM58.322,149.441a.146.146,0,0,0-.043.06A.7.7,0,0,1,58.322,149.441Z" transform="translate(0 -3)" fill="#484848" fill-rule="evenodd"/>
    <path id="Path_63" data-name="Path 63" d="M425.7,244.775s1.6-1.055,1.958-.8C427.859,244.116,426.313,244.69,425.7,244.775Z" transform="translate(-244.914 -126.725)" fill="#fff" fill-rule="evenodd"/>
  </g>
</svg>
