<svg width="72" height="72" viewBox="0 0 72 72" fill="none" xmlns="http://www.w3.org/2000/svg">
<g filter="url(#filter0_i_221_5059)">
<path d="M25.7329 18.2572C25.9013 17.1665 25.0575 16.1837 23.9539 16.1837H5.09754C3.9937 16.1837 3.14974 17.167 3.3187 18.2578C4.02895 22.8432 5.69198 33.5703 5.96622 35.2533C6.09527 36.0473 6.30316 36.0473 6.43221 35.2533L8.54002 22.3148C8.66907 21.5209 8.89852 21.5135 9.05625 22.3148L10.9131 31.8717C11.0708 32.6656 11.3218 32.6656 11.4795 31.8717L13.0424 23.8586C13.193 23.0647 13.4583 23.0647 13.6232 23.8586L16.7275 38.7011C16.8924 39.4951 17.1577 39.4951 17.3226 38.7011L20.3194 24.3879C20.4843 23.6013 20.7209 23.6087 20.85 24.3879L22.6208 35.2386C22.7498 36.0326 22.9578 36.0326 23.094 35.2386C23.3681 33.5538 25.025 22.8389 25.7329 18.2572Z" fill="url(#paint0_linear_221_5059)"/>
<path d="M25.7329 18.2572C25.9013 17.1665 25.0575 16.1837 23.9539 16.1837H5.09754C3.9937 16.1837 3.14974 17.167 3.3187 18.2578C4.02895 22.8432 5.69198 33.5703 5.96622 35.2533C6.09527 36.0473 6.30316 36.0473 6.43221 35.2533L8.54002 22.3148C8.66907 21.5209 8.89852 21.5135 9.05625 22.3148L10.9131 31.8717C11.0708 32.6656 11.3218 32.6656 11.4795 31.8717L13.0424 23.8586C13.193 23.0647 13.4583 23.0647 13.6232 23.8586L16.7275 38.7011C16.8924 39.4951 17.1577 39.4951 17.3226 38.7011L20.3194 24.3879C20.4843 23.6013 20.7209 23.6087 20.85 24.3879L22.6208 35.2386C22.7498 36.0326 22.9578 36.0326 23.094 35.2386C23.3681 33.5538 25.025 22.8389 25.7329 18.2572Z" fill="url(#paint1_linear_221_5059)" fill-opacity="0.3"/>
<path d="M25.7329 18.2572C25.9013 17.1665 25.0575 16.1837 23.9539 16.1837H5.09754C3.9937 16.1837 3.14974 17.167 3.3187 18.2578C4.02895 22.8432 5.69198 33.5703 5.96622 35.2533C6.09527 36.0473 6.30316 36.0473 6.43221 35.2533L8.54002 22.3148C8.66907 21.5209 8.89852 21.5135 9.05625 22.3148L10.9131 31.8717C11.0708 32.6656 11.3218 32.6656 11.4795 31.8717L13.0424 23.8586C13.193 23.0647 13.4583 23.0647 13.6232 23.8586L16.7275 38.7011C16.8924 39.4951 17.1577 39.4951 17.3226 38.7011L20.3194 24.3879C20.4843 23.6013 20.7209 23.6087 20.85 24.3879L22.6208 35.2386C22.7498 36.0326 22.9578 36.0326 23.094 35.2386C23.3681 33.5538 25.025 22.8389 25.7329 18.2572Z" fill="url(#paint2_radial_221_5059)" fill-opacity="0.2"/>
<path d="M25.7329 18.2572C25.9013 17.1665 25.0575 16.1837 23.9539 16.1837H5.09754C3.9937 16.1837 3.14974 17.167 3.3187 18.2578C4.02895 22.8432 5.69198 33.5703 5.96622 35.2533C6.09527 36.0473 6.30316 36.0473 6.43221 35.2533L8.54002 22.3148C8.66907 21.5209 8.89852 21.5135 9.05625 22.3148L10.9131 31.8717C11.0708 32.6656 11.3218 32.6656 11.4795 31.8717L13.0424 23.8586C13.193 23.0647 13.4583 23.0647 13.6232 23.8586L16.7275 38.7011C16.8924 39.4951 17.1577 39.4951 17.3226 38.7011L20.3194 24.3879C20.4843 23.6013 20.7209 23.6087 20.85 24.3879L22.6208 35.2386C22.7498 36.0326 22.9578 36.0326 23.094 35.2386C23.3681 33.5538 25.025 22.8389 25.7329 18.2572Z" fill="url(#paint3_radial_221_5059)" fill-opacity="0.2"/>
<path d="M25.7329 18.2572C25.9013 17.1665 25.0575 16.1837 23.9539 16.1837H5.09754C3.9937 16.1837 3.14974 17.167 3.3187 18.2578C4.02895 22.8432 5.69198 33.5703 5.96622 35.2533C6.09527 36.0473 6.30316 36.0473 6.43221 35.2533L8.54002 22.3148C8.66907 21.5209 8.89852 21.5135 9.05625 22.3148L10.9131 31.8717C11.0708 32.6656 11.3218 32.6656 11.4795 31.8717L13.0424 23.8586C13.193 23.0647 13.4583 23.0647 13.6232 23.8586L16.7275 38.7011C16.8924 39.4951 17.1577 39.4951 17.3226 38.7011L20.3194 24.3879C20.4843 23.6013 20.7209 23.6087 20.85 24.3879L22.6208 35.2386C22.7498 36.0326 22.9578 36.0326 23.094 35.2386C23.3681 33.5538 25.025 22.8389 25.7329 18.2572Z" fill="url(#paint4_radial_221_5059)" fill-opacity="0.2"/>
<path d="M25.7329 18.2572C25.9013 17.1665 25.0575 16.1837 23.9539 16.1837H5.09754C3.9937 16.1837 3.14974 17.167 3.3187 18.2578C4.02895 22.8432 5.69198 33.5703 5.96622 35.2533C6.09527 36.0473 6.30316 36.0473 6.43221 35.2533L8.54002 22.3148C8.66907 21.5209 8.89852 21.5135 9.05625 22.3148L10.9131 31.8717C11.0708 32.6656 11.3218 32.6656 11.4795 31.8717L13.0424 23.8586C13.193 23.0647 13.4583 23.0647 13.6232 23.8586L16.7275 38.7011C16.8924 39.4951 17.1577 39.4951 17.3226 38.7011L20.3194 24.3879C20.4843 23.6013 20.7209 23.6087 20.85 24.3879L22.6208 35.2386C22.7498 36.0326 22.9578 36.0326 23.094 35.2386C23.3681 33.5538 25.025 22.8389 25.7329 18.2572Z" fill="url(#paint5_radial_221_5059)" fill-opacity="0.15"/>
<path d="M25.7329 18.2572C25.9013 17.1665 25.0575 16.1837 23.9539 16.1837H5.09754C3.9937 16.1837 3.14974 17.167 3.3187 18.2578C4.02895 22.8432 5.69198 33.5703 5.96622 35.2533C6.09527 36.0473 6.30316 36.0473 6.43221 35.2533L8.54002 22.3148C8.66907 21.5209 8.89852 21.5135 9.05625 22.3148L10.9131 31.8717C11.0708 32.6656 11.3218 32.6656 11.4795 31.8717L13.0424 23.8586C13.193 23.0647 13.4583 23.0647 13.6232 23.8586L16.7275 38.7011C16.8924 39.4951 17.1577 39.4951 17.3226 38.7011L20.3194 24.3879C20.4843 23.6013 20.7209 23.6087 20.85 24.3879L22.6208 35.2386C22.7498 36.0326 22.9578 36.0326 23.094 35.2386C23.3681 33.5538 25.025 22.8389 25.7329 18.2572Z" fill="url(#paint6_radial_221_5059)" fill-opacity="0.2"/>
<path d="M25.7329 18.2572C25.9013 17.1665 25.0575 16.1837 23.9539 16.1837H5.09754C3.9937 16.1837 3.14974 17.167 3.3187 18.2578C4.02895 22.8432 5.69198 33.5703 5.96622 35.2533C6.09527 36.0473 6.30316 36.0473 6.43221 35.2533L8.54002 22.3148C8.66907 21.5209 8.89852 21.5135 9.05625 22.3148L10.9131 31.8717C11.0708 32.6656 11.3218 32.6656 11.4795 31.8717L13.0424 23.8586C13.193 23.0647 13.4583 23.0647 13.6232 23.8586L16.7275 38.7011C16.8924 39.4951 17.1577 39.4951 17.3226 38.7011L20.3194 24.3879C20.4843 23.6013 20.7209 23.6087 20.85 24.3879L22.6208 35.2386C22.7498 36.0326 22.9578 36.0326 23.094 35.2386C23.3681 33.5538 25.025 22.8389 25.7329 18.2572Z" fill="url(#paint7_linear_221_5059)" fill-opacity="0.2"/>
</g>
<path d="M25.7329 18.2572C25.9013 17.1665 25.0575 16.1837 23.9539 16.1837H5.09754C3.9937 16.1837 3.14974 17.167 3.3187 18.2578C4.02895 22.8432 5.69198 33.5703 5.96622 35.2533C6.09527 36.0473 6.30316 36.0473 6.43221 35.2533L8.54002 22.3148C8.66907 21.5209 8.89852 21.5135 9.05625 22.3148L10.9131 31.8717C11.0708 32.6656 11.3218 32.6656 11.4795 31.8717L13.0424 23.8586C13.193 23.0647 13.4583 23.0647 13.6232 23.8586L16.7275 38.7011C16.8924 39.4951 17.1577 39.4951 17.3226 38.7011L20.3194 24.3879C20.4843 23.6013 20.7209 23.6087 20.85 24.3879L22.6208 35.2386C22.7498 36.0326 22.9578 36.0326 23.094 35.2386C23.3681 33.5538 25.025 22.8389 25.7329 18.2572Z" fill="url(#paint8_linear_221_5059)" fill-opacity="0.5"/>
<path d="M25.7329 18.2572C25.9013 17.1665 25.0575 16.1837 23.9539 16.1837H5.09754C3.9937 16.1837 3.14974 17.167 3.3187 18.2578C4.02895 22.8432 5.69198 33.5703 5.96622 35.2533C6.09527 36.0473 6.30316 36.0473 6.43221 35.2533L8.54002 22.3148C8.66907 21.5209 8.89852 21.5135 9.05625 22.3148L10.9131 31.8717C11.0708 32.6656 11.3218 32.6656 11.4795 31.8717L13.0424 23.8586C13.193 23.0647 13.4583 23.0647 13.6232 23.8586L16.7275 38.7011C16.8924 39.4951 17.1577 39.4951 17.3226 38.7011L20.3194 24.3879C20.4843 23.6013 20.7209 23.6087 20.85 24.3879L22.6208 35.2386C22.7498 36.0326 22.9578 36.0326 23.094 35.2386C23.3681 33.5538 25.025 22.8389 25.7329 18.2572Z" fill="url(#paint9_radial_221_5059)" fill-opacity="0.7"/>
<path d="M25.7329 18.2572C25.9013 17.1665 25.0575 16.1837 23.9539 16.1837H5.09754C3.9937 16.1837 3.14974 17.167 3.3187 18.2578C4.02895 22.8432 5.69198 33.5703 5.96622 35.2533C6.09527 36.0473 6.30316 36.0473 6.43221 35.2533L8.54002 22.3148C8.66907 21.5209 8.89852 21.5135 9.05625 22.3148L10.9131 31.8717C11.0708 32.6656 11.3218 32.6656 11.4795 31.8717L13.0424 23.8586C13.193 23.0647 13.4583 23.0647 13.6232 23.8586L16.7275 38.7011C16.8924 39.4951 17.1577 39.4951 17.3226 38.7011L20.3194 24.3879C20.4843 23.6013 20.7209 23.6087 20.85 24.3879L22.6208 35.2386C22.7498 36.0326 22.9578 36.0326 23.094 35.2386C23.3681 33.5538 25.025 22.8389 25.7329 18.2572Z" fill="url(#paint10_radial_221_5059)" fill-opacity="0.6"/>
<path d="M25.7329 18.2572C25.9013 17.1665 25.0575 16.1837 23.9539 16.1837H5.09754C3.9937 16.1837 3.14974 17.167 3.3187 18.2578C4.02895 22.8432 5.69198 33.5703 5.96622 35.2533C6.09527 36.0473 6.30316 36.0473 6.43221 35.2533L8.54002 22.3148C8.66907 21.5209 8.89852 21.5135 9.05625 22.3148L10.9131 31.8717C11.0708 32.6656 11.3218 32.6656 11.4795 31.8717L13.0424 23.8586C13.193 23.0647 13.4583 23.0647 13.6232 23.8586L16.7275 38.7011C16.8924 39.4951 17.1577 39.4951 17.3226 38.7011L20.3194 24.3879C20.4843 23.6013 20.7209 23.6087 20.85 24.3879L22.6208 35.2386C22.7498 36.0326 22.9578 36.0326 23.094 35.2386C23.3681 33.5538 25.025 22.8389 25.7329 18.2572Z" fill="url(#paint11_radial_221_5059)" fill-opacity="0.6"/>
<g filter="url(#filter1_dd_221_5059)">
<path d="M54.8998 13.5778C54.8998 7.73506 50.2277 3.00009 44.4658 3.00009C38.704 3.00009 34.0319 7.73506 34.0319 13.5778V41.3807C30.8511 44.2889 28.8149 48.4528 28.8149 53.1322C28.8149 61.8989 35.8256 69.0001 44.4658 69.0001C53.1086 69.0001 60.1167 61.8989 60.1167 53.1322C60.1167 48.4528 58.0805 44.2889 54.8998 41.3807V13.5778Z" fill="url(#paint12_linear_221_5059)"/>
</g>
<g filter="url(#filter2_f_221_5059)">
<path fill-rule="evenodd" clip-rule="evenodd" d="M48.6485 10.4194C48.6483 10.4193 48.6483 10.4193 48.6485 10.4194C48.1 10.1305 47.8878 9.44818 48.1745 8.89544C48.4612 8.34269 49.1383 8.12883 49.6868 8.41777C50.6399 8.91981 51.854 10.4642 51.854 13.0761C51.854 15.3453 51.7828 33.7967 51.7472 42.735C51.7448 43.3587 51.241 43.8623 50.6221 43.8598C50.0032 43.8573 49.5034 43.3496 49.5059 42.7259C49.5415 33.7832 49.6127 15.3393 49.6127 13.0761C49.6127 12.1226 49.3945 11.466 49.1646 11.0455C49.0483 10.8326 48.9274 10.6773 48.8263 10.5718C48.7757 10.519 48.732 10.4807 48.6986 10.4546C48.668 10.4307 48.6506 10.4206 48.6485 10.4194Z" fill="url(#paint13_linear_221_5059)"/>
</g>
<path fill-rule="evenodd" clip-rule="evenodd" d="M44.5479 9.01984C46.7412 9.01984 48.5192 10.5877 48.5192 12.5217V39.8489C48.5192 41.7829 46.7412 43.3508 44.5479 43.3508C42.3547 43.3508 40.5767 41.7829 40.5767 39.8489V12.5217C40.5767 10.5877 42.3547 9.01984 44.5479 9.01984Z" fill="black" fill-opacity="0.15"/>
<g filter="url(#filter3_d_221_5059)">
<path d="M48.308 44.7785C48.308 38.8742 48.308 34.7888 48.308 28.8844C48.308 26.6952 46.5209 24.904 44.3367 24.904C42.1525 24.904 40.3655 26.6952 40.3655 28.8844C40.3655 34.7888 40.3655 38.8742 40.3655 44.7785C37.387 46.2712 35.4014 49.2565 35.4014 52.8389C35.4014 57.8145 39.3726 61.7949 44.3367 61.7949C49.3008 61.7949 53.2721 57.8145 53.2721 52.8389C53.2721 49.2565 51.2865 46.2712 48.308 44.7785Z" fill="url(#paint14_linear_221_5059)"/>
</g>
<path d="M48.308 44.7917C48.308 38.8873 48.308 34.8019 48.308 28.8976C48.308 26.7084 46.5209 24.9171 44.3367 24.9171C42.1525 24.9171 40.3655 26.7084 40.3655 28.8976C40.3655 34.8019 40.3655 38.8873 40.3655 44.7917C37.387 46.2844 35.4014 49.2697 35.4014 52.8521C35.4014 57.8277 39.3726 61.8081 44.3367 61.8081C49.3008 61.8081 53.2721 57.8277 53.2721 52.8521C53.2721 49.2697 51.2865 46.2844 48.308 44.7917Z" fill="url(#paint15_linear_221_5059)"/>
<path d="M43.2377 57.0892C44.8296 58.6934 47.4106 58.6934 49.0025 57.0892C50.5944 55.485 50.5944 52.884 49.0025 51.2798C47.4106 49.6756 44.8296 49.6756 43.2377 51.2798C41.6458 52.884 41.6458 55.485 43.2377 57.0892Z" fill="url(#paint16_linear_221_5059)"/>
<g filter="url(#filter4_f_221_5059)">
<path fill-rule="evenodd" clip-rule="evenodd" d="M42.8228 39.3294C42.8228 38.7081 43.3264 38.2044 43.9478 38.2044C51.875 38.2044 58.2865 44.6779 58.2865 52.6452C58.2865 60.6125 51.875 67.086 43.9478 67.086C43.3264 67.086 42.8228 66.5823 42.8228 65.961C42.8228 65.3397 43.3264 64.836 43.9478 64.836C50.6161 64.836 56.0365 59.3862 56.0365 52.6452C56.0365 45.9042 50.6161 40.4544 43.9478 40.4544C43.3264 40.4544 42.8228 39.9507 42.8228 39.3294Z" fill="url(#paint17_linear_221_5059)"/>
</g>
<defs>
<filter id="filter0_i_221_5059" x="1.79688" y="16.1837" width="23.9575" height="25.0629" filterUnits="userSpaceOnUse" color-interpolation-filters="sRGB">
<feFlood flood-opacity="0" result="BackgroundImageFix"/>
<feBlend mode="normal" in="SourceGraphic" in2="BackgroundImageFix" result="shape"/>
<feColorMatrix in="SourceAlpha" type="matrix" values="0 0 0 0 0 0 0 0 0 0 0 0 0 0 0 0 0 0 127 0" result="hardAlpha"/>
<feOffset dx="-1.5" dy="1.95"/>
<feGaussianBlur stdDeviation="1.05"/>
<feComposite in2="hardAlpha" operator="arithmetic" k2="-1" k3="1"/>
<feColorMatrix type="matrix" values="0 0 0 0 0.044566 0 0 0 0 0.278406 0 0 0 0 0.629167 0 0 0 0.3 0"/>
<feBlend mode="normal" in2="shape" result="effect1_innerShadow_221_5059"/>
</filter>
<filter id="filter1_dd_221_5059" x="27.3149" y="1.50009" width="35.8018" height="69.9" filterUnits="userSpaceOnUse" color-interpolation-filters="sRGB">
<feFlood flood-opacity="0" result="BackgroundImageFix"/>
<feColorMatrix in="SourceAlpha" type="matrix" values="0 0 0 0 0 0 0 0 0 0 0 0 0 0 0 0 0 0 127 0" result="hardAlpha"/>
<feOffset/>
<feGaussianBlur stdDeviation="0.75"/>
<feColorMatrix type="matrix" values="0 0 0 0 0 0 0 0 0 0 0 0 0 0 0 0 0 0 0.2 0"/>
<feBlend mode="normal" in2="BackgroundImageFix" result="effect1_dropShadow_221_5059"/>
<feColorMatrix in="SourceAlpha" type="matrix" values="0 0 0 0 0 0 0 0 0 0 0 0 0 0 0 0 0 0 127 0" result="hardAlpha"/>
<feOffset dx="1.5" dy="0.9"/>
<feGaussianBlur stdDeviation="0.75"/>
<feColorMatrix type="matrix" values="0 0 0 0 0 0 0 0 0 0 0 0 0 0 0 0 0 0 0.15 0"/>
<feBlend mode="normal" in2="effect1_dropShadow_221_5059" result="effect2_dropShadow_221_5059"/>
<feBlend mode="normal" in="SourceGraphic" in2="effect2_dropShadow_221_5059" result="shape"/>
</filter>
<filter id="filter2_f_221_5059" x="45.7969" y="6.03906" width="8.30713" height="40.0707" filterUnits="userSpaceOnUse" color-interpolation-filters="sRGB">
<feFlood flood-opacity="0" result="BackgroundImageFix"/>
<feBlend mode="normal" in="SourceGraphic" in2="BackgroundImageFix" result="shape"/>
<feGaussianBlur stdDeviation="1.125" result="effect1_foregroundBlur_221_5059"/>
</filter>
<filter id="filter3_d_221_5059" x="34.8014" y="24.904" width="19.0706" height="38.091" filterUnits="userSpaceOnUse" color-interpolation-filters="sRGB">
<feFlood flood-opacity="0" result="BackgroundImageFix"/>
<feColorMatrix in="SourceAlpha" type="matrix" values="0 0 0 0 0 0 0 0 0 0 0 0 0 0 0 0 0 0 127 0" result="hardAlpha"/>
<feOffset dy="0.6"/>
<feGaussianBlur stdDeviation="0.3"/>
<feComposite in2="hardAlpha" operator="out"/>
<feColorMatrix type="matrix" values="0 0 0 0 0.0139583 0 0 0 0 0.474652 0 0 0 0 0.8375 0 0 0 1 0"/>
<feBlend mode="normal" in2="BackgroundImageFix" result="effect1_dropShadow_221_5059"/>
<feBlend mode="normal" in="SourceGraphic" in2="effect1_dropShadow_221_5059" result="shape"/>
</filter>
<filter id="filter4_f_221_5059" x="40.5728" y="35.9544" width="19.9639" height="33.3816" filterUnits="userSpaceOnUse" color-interpolation-filters="sRGB">
<feFlood flood-opacity="0" result="BackgroundImageFix"/>
<feBlend mode="normal" in="SourceGraphic" in2="BackgroundImageFix" result="shape"/>
<feGaussianBlur stdDeviation="1.125" result="effect1_foregroundBlur_221_5059"/>
</filter>
<linearGradient id="paint0_linear_221_5059" x1="-22.7687" y1="19.6795" x2="17.4467" y2="40.2873" gradientUnits="userSpaceOnUse">
<stop stop-color="#FEFEFF"/>
<stop offset="1" stop-color="#61AEF4"/>
</linearGradient>
<linearGradient id="paint1_linear_221_5059" x1="3.91677" y1="23.2698" x2="8.97945" y2="22.551" gradientUnits="userSpaceOnUse">
<stop stop-color="white"/>
<stop offset="0.526879" stop-color="#FFF9E9" stop-opacity="0"/>
</linearGradient>
<radialGradient id="paint2_radial_221_5059" cx="0" cy="0" r="1" gradientUnits="userSpaceOnUse" gradientTransform="translate(3.54808 16.1821) rotate(40.1778) scale(3.81116 5.62316)">
<stop stop-color="white"/>
<stop offset="1" stop-color="white" stop-opacity="0"/>
</radialGradient>
<radialGradient id="paint3_radial_221_5059" cx="0" cy="0" r="1" gradientUnits="userSpaceOnUse" gradientTransform="translate(22.5664 34.9432) rotate(90) scale(3.47464 3.44454)">
<stop/>
<stop offset="1" stop-opacity="0"/>
</radialGradient>
<radialGradient id="paint4_radial_221_5059" cx="0" cy="0" r="1" gradientUnits="userSpaceOnUse" gradientTransform="translate(17.1051 37.7235) rotate(95.0533) scale(6.12878 6.07641)">
<stop/>
<stop offset="1" stop-opacity="0"/>
</radialGradient>
<radialGradient id="paint5_radial_221_5059" cx="0" cy="0" r="1" gradientUnits="userSpaceOnUse" gradientTransform="translate(11.0598 31.1022) rotate(87.582) scale(2.62156 2.59892)">
<stop/>
<stop offset="1" stop-opacity="0"/>
</radialGradient>
<radialGradient id="paint6_radial_221_5059" cx="0" cy="0" r="1" gradientUnits="userSpaceOnUse" gradientTransform="translate(6.12195 32.8421) rotate(90) scale(5.37689 5.33031)">
<stop/>
<stop offset="1" stop-opacity="0"/>
</radialGradient>
<linearGradient id="paint7_linear_221_5059" x1="27.1951" y1="16.9428" x2="23.3391" y2="19.9813" gradientUnits="userSpaceOnUse">
<stop stop-color="#001753"/>
<stop offset="1" stop-color="#031F68" stop-opacity="0"/>
</linearGradient>
<linearGradient id="paint8_linear_221_5059" x1="4.46224" y1="26.2703" x2="6.02687" y2="26.035" gradientUnits="userSpaceOnUse">
<stop stop-color="white"/>
<stop offset="1" stop-color="white" stop-opacity="0"/>
</linearGradient>
<radialGradient id="paint9_radial_221_5059" cx="0" cy="0" r="1" gradientUnits="userSpaceOnUse" gradientTransform="translate(9.69297 27.7398) rotate(-10.6248) scale(1.24694 6.94432)">
<stop stop-color="white"/>
<stop offset="1" stop-color="white" stop-opacity="0"/>
</radialGradient>
<radialGradient id="paint10_radial_221_5059" cx="0" cy="0" r="1" gradientUnits="userSpaceOnUse" gradientTransform="translate(14.9473 32.3118) rotate(-11.7066) scale(1.6795 9.7154)">
<stop stop-color="white"/>
<stop offset="1" stop-color="white" stop-opacity="0"/>
</radialGradient>
<radialGradient id="paint11_radial_221_5059" cx="0" cy="0" r="1" gradientUnits="userSpaceOnUse" gradientTransform="translate(21.2869 30.4173) rotate(-10.7655) scale(1.64876 7.38222)">
<stop stop-color="white"/>
<stop offset="0.964336" stop-color="white" stop-opacity="0"/>
</radialGradient>
<linearGradient id="paint12_linear_221_5059" x1="34.0368" y1="40.9935" x2="53.8574" y2="40.9935" gradientUnits="userSpaceOnUse">
<stop stop-color="#BADBFF"/>
<stop offset="1" stop-color="#D5EEFF"/>
</linearGradient>
<linearGradient id="paint13_linear_221_5059" x1="49.2033" y1="5.43839" x2="33.1369" y2="34.5077" gradientUnits="userSpaceOnUse">
<stop stop-color="#C8F6FF" stop-opacity="0"/>
<stop offset="0.321794" stop-color="#C8F6FF"/>
</linearGradient>
<linearGradient id="paint14_linear_221_5059" x1="30.9337" y1="59.5141" x2="48.644" y2="56.306" gradientUnits="userSpaceOnUse">
<stop offset="0.0520833" stop-color="#2697F0"/>
<stop offset="0.385417" stop-color="#2697F0"/>
<stop offset="0.921875" stop-color="#2697F0"/>
</linearGradient>
<linearGradient id="paint15_linear_221_5059" x1="31.0597" y1="48.1544" x2="47.2072" y2="54.9393" gradientUnits="userSpaceOnUse">
<stop offset="0.395833" stop-color="#10C6EE" stop-opacity="0.71"/>
<stop offset="1" stop-color="#0046AF"/>
</linearGradient>
<linearGradient id="paint16_linear_221_5059" x1="47.9764" y1="50.2457" x2="42.1672" y2="56.0104" gradientUnits="userSpaceOnUse">
<stop stop-color="white"/>
<stop offset="0.733331" stop-color="white" stop-opacity="0.1"/>
</linearGradient>
<linearGradient id="paint17_linear_221_5059" x1="47.7771" y1="50.8097" x2="58.0434" y2="50.8074" gradientUnits="userSpaceOnUse">
<stop stop-color="#C8F6FF" stop-opacity="0"/>
<stop offset="0.989832" stop-color="#C8F6FF"/>
</linearGradient>
</defs>
</svg>
